<svg width="36" height="42" viewBox="0 0 36 42" fill="none" xmlns="http://www.w3.org/2000/svg">
<path d="M19.1832 29.1282C18.701 30.1935 18.2755 31.1549 17.8348 32.1097C16.8442 34.2448 15.8711 36.3909 14.8369 38.5016C14.4508 39.2078 14.0079 39.8805 13.5125 40.5129C12.858 41.4301 10.8943 42.0114 9.93212 41.618C9.19901 41.3152 8.99392 40.8002 9.3561 40.0708C10.1678 38.453 10.9947 36.8417 11.8151 35.2305C12.1467 34.5785 12.4827 33.9287 12.8078 33.2745C12.8643 33.1355 12.9095 32.9921 12.9431 32.8457L12.7925 32.7374C12.3562 33.1662 11.9198 33.5773 11.5161 34.0259C10.4252 35.2305 9.38445 36.4748 8.2717 37.6551C7.34062 38.6403 6.22899 39.4323 4.99892 39.9868C4.21346 40.3427 3.35382 40.1681 2.86072 39.4476C2.48393 38.9131 2.19645 38.3194 2.0098 37.6904C1.92252 37.3722 2.11671 36.8837 2.33707 36.5854C2.76138 36.0164 3.24733 35.4974 3.78583 35.0382C6.1095 33.0778 8.45936 31.1483 10.8027 29.2099C11.4747 28.653 12.1641 28.1181 12.8361 27.5567C13.0089 27.3781 13.1666 27.1852 13.3074 26.9798C12.954 26.9489 12.7467 26.9158 12.5394 26.9135C9.9452 26.9025 7.35096 26.9135 4.75674 26.8738C3.68763 26.8539 2.62727 26.6793 1.71962 26.0051C0.868696 25.373 0.565402 24.374 0.912317 23.2601C1.15668 22.4843 2.06433 21.8433 2.98289 21.8411C6.17713 21.8411 9.37137 21.8411 12.5656 21.8411C12.781 21.828 12.9952 21.8007 13.2071 21.7594L13.2354 21.6024C12.9475 21.436 12.6745 21.2445 12.4194 21.03C11.3285 19.9249 10.2376 18.8353 9.19246 17.6926C7.3968 15.7255 5.6404 13.7142 3.86219 11.7361C2.74071 10.4829 1.65198 9.1966 1.06506 7.58537C0.883286 7.06855 0.809001 6.51923 0.846877 5.97193C0.907969 5.08785 1.47525 4.64581 2.59236 4.76074C3.70947 4.87567 4.44474 5.51884 5.11457 6.32777C7.54515 9.26438 9.97793 12.2025 12.4129 15.142C13.098 15.9664 13.7983 16.7754 14.4922 17.5931L14.6776 17.5003C14.5816 17.1975 14.4834 16.8947 14.3853 16.5941C13.8856 15.0293 13.2944 13.4866 12.9038 11.8975C12.4347 10.0475 12.0878 8.16002 11.7474 6.27914C11.5009 4.92871 11.3241 3.56282 11.167 2.19912C11.0361 1.05645 12.2121 0.150271 13.3314 0.267412C14.4507 0.384552 14.5533 1.25758 14.8238 2.0201C15.4886 3.89435 16.1388 5.77375 16.7744 7.65831C16.9114 8.05475 16.9951 8.46809 17.0231 8.88718C17.1061 10.3636 17.4922 11.7737 17.9068 13.1772C18.0508 13.67 18.1577 14.174 18.3039 14.6646C18.3748 14.9027 18.5138 15.1142 18.7032 15.2724C18.7293 15.1442 18.7599 15.0161 18.7773 14.8879C19.0435 13.0004 19.2137 11.093 19.5977 9.22976C20.0341 7.04829 20.6559 4.89998 21.7796 2.94617C22.2683 2.09303 22.8269 1.30399 23.6647 0.777966C25.0785 -0.106112 26.2589 0.335927 26.7913 1.89633C27.0233 2.51112 27.1758 3.15372 27.2451 3.80815C27.2923 4.4304 27.2182 5.05599 27.0269 5.64924C26.3178 7.74451 25.5411 9.81325 24.7796 11.8908C24.2276 13.3938 23.6603 14.8923 23.1061 16.3974C23.0528 16.5821 23.0127 16.7705 22.9861 16.961L23.1083 17.0605C23.5447 16.7378 23.9811 16.3974 24.4327 16.0946C25.8471 15.1361 27.4536 14.5073 29.1368 14.2535C31.0372 13.9264 32.8459 14.2712 34.6612 14.6956C35.6976 14.9343 36.2518 16.1631 35.8285 17.1621C35.4052 18.1612 34.6481 18.5369 33.6467 18.612C32.2023 18.7226 30.7361 18.7469 29.3222 19.0231C27.4633 19.3856 25.6458 19.9536 23.8131 20.4421C23.2741 20.5857 23.6102 20.9084 23.7345 21.1051C24.2145 21.903 24.712 22.6921 25.2356 23.4612C26.1978 24.8757 26.776 26.4715 27.448 28.0319C28.0895 29.5216 28.8902 30.9449 29.6735 32.3683C30.7928 34.3995 31.9514 36.4063 33.1099 38.4154C33.2001 38.5421 33.2386 38.6992 33.2174 38.8539C33.1963 39.0087 33.1172 39.1492 32.9965 39.2464C31.9056 40.4245 30.2691 40.1791 29.4095 38.6872C28.5695 37.2307 27.7469 35.7676 26.9157 34.3066C25.4771 31.7605 24.0305 29.2195 22.5759 26.6837C22.5018 26.5577 22.325 26.4936 22.1941 26.4008C22.1555 26.5598 22.1379 26.7233 22.1418 26.887C22.325 28.0275 22.5083 29.1679 22.7221 30.304C23.0123 31.829 23.3549 33.3474 23.6254 34.8769C23.8589 36.1897 24.0291 37.5136 24.2189 38.8353C24.2865 39.3017 24.0356 39.5956 23.6625 39.8167C22.4516 40.5328 20.8785 39.9581 20.5839 38.5679C20.2741 37.1092 20.1475 35.6129 19.9577 34.1298C19.7679 32.6468 19.5803 31.1151 19.3839 29.6078C19.3331 29.4414 19.2659 29.2807 19.1832 29.1282Z" fill="currentColor"/>
</svg>
