<svg width="17" height="18" viewBox="0 0 17 18" fill="none" xmlns="http://www.w3.org/2000/svg">
<path d="M12.9361 10.3125C13.0383 10.4155 13.1465 10.5128 13.26 10.6039C14.3084 11.3335 15.3583 12.0602 16.4098 12.7843C16.7545 13.0207 16.7968 13.127 16.5718 13.4735C16.3175 13.8648 16.0332 14.2378 15.7601 14.6182C15.649 14.773 15.5209 14.8519 15.3288 14.7235C15.1367 14.5952 14.9145 14.4816 14.7168 14.3469C13.2729 13.3601 11.8291 12.3712 10.3852 11.3802C10.2145 11.2613 10.0376 11.1512 9.85507 11.0503C9.64791 10.9394 9.51327 11.0127 9.52456 11.2455C9.53963 11.5772 9.58012 11.9081 9.62814 12.2371C9.69971 12.7229 9.78822 13.2068 9.8692 13.6916C9.95207 14.192 10.0359 14.6915 10.1159 15.191C10.1536 15.4237 10.1837 15.6565 10.2101 15.8902C10.2656 16.3439 10.3212 16.7976 10.3711 17.2512C10.4041 17.5473 10.3476 17.6426 10.0481 17.7095C9.5707 17.813 9.08952 17.9056 8.6074 17.9844C8.30043 18.0339 8.22416 17.9753 8.16201 17.6664C8.09986 17.3575 8.06785 17.0652 8.02265 16.7646C7.93602 16.1963 7.84468 15.629 7.76464 15.0608C7.70438 14.6319 7.67047 14.1993 7.60079 13.7704C7.55295 13.4406 7.48695 13.1136 7.40305 12.7907C7.34185 12.5661 7.21472 12.5405 7.05464 12.7082C6.3729 13.409 5.69586 14.1144 5.02353 14.8244C4.43877 15.4384 3.86155 16.0589 3.27774 16.6729C3.07717 16.8846 2.99525 16.8929 2.76737 16.7087C2.39071 16.4032 2.02034 16.0897 1.65624 15.7683C1.39917 15.542 1.39258 15.4292 1.62516 15.1735C2.12329 14.6236 2.63177 14.0903 3.13178 13.5468C3.80976 12.8136 4.48554 12.0761 5.15913 11.3344C5.20413 11.261 5.23598 11.1808 5.25329 11.097C5.16508 11.0625 5.0721 11.0409 4.97739 11.0328C4.12992 11.086 3.28244 11.1428 2.42932 11.2116C1.84739 11.2592 1.26828 11.3399 0.685409 11.3857C0.351127 11.4114 0.214584 11.2821 0.174094 10.9641C0.116654 10.5269 0.0554516 10.0898 0.00742802 9.65078C-0.0292959 9.31626 0.0648689 9.20078 0.408567 9.17146C1.3502 9.09172 2.29184 9.02482 3.23819 8.946C4.048 8.87818 4.8578 8.80853 5.66479 8.72146C5.81262 8.70588 5.94728 8.60048 6.09324 8.53816C5.99907 8.42727 5.91432 8.29255 5.79567 8.21006C4.26959 7.14205 2.73786 6.07983 1.20048 5.02343C1.0291 4.9052 0.86149 4.78147 0.691995 4.65683C0.427395 4.46712 0.389729 4.3049 0.568641 4.03637C0.772976 3.73026 0.986732 3.43057 1.19672 3.12813C1.21461 3.10247 1.23626 3.08047 1.25321 3.05481C1.52911 2.63872 1.67413 2.61948 2.09033 2.9045C3.39293 3.80083 4.6971 4.69135 6.00284 5.57607C6.09212 5.61623 6.18754 5.64192 6.28533 5.65214C6.31804 5.57129 6.33743 5.48592 6.34277 5.39919C6.29192 4.88595 6.23385 4.37333 6.16857 3.86132C6.12619 3.52313 6.0744 3.18587 6.01979 2.8486C5.93315 2.29871 5.83805 1.74056 5.75707 1.18425C5.72058 0.975152 5.70826 0.76273 5.72035 0.55096C5.7307 0.49638 5.75466 0.445108 5.79012 0.401644C5.82559 0.35818 5.87146 0.323853 5.92374 0.301675C6.25896 0.235687 6.6036 0.217358 6.94259 0.166035C7.16333 0.132412 7.38162 0.0849614 7.59609 0.0239785C7.71191 -0.00901512 7.79007 -0.0300944 7.81832 0.115627C7.888 0.482223 7.96332 0.848818 8.03677 1.209C8.09986 1.52702 8.17331 1.84229 8.2251 2.16215C8.28819 2.58282 8.3268 3.00715 8.38424 3.42874C8.53741 4.53463 8.69435 5.64083 8.85506 6.74734C8.85933 6.79305 8.86849 6.8382 8.88237 6.88207C8.96335 7.10936 9.10553 7.15701 9.28444 6.99205C9.53398 6.76292 9.7741 6.52189 10.0076 6.27627C10.7506 5.4945 11.4851 4.70449 12.2289 3.92272C12.8498 3.27018 13.4754 2.62223 14.1056 1.97885C14.3109 1.76989 14.4004 1.76897 14.6198 1.96052C15.0096 2.30145 15.3929 2.6488 15.777 2.99615C15.9211 3.12629 15.9371 3.2711 15.8006 3.4159C15.2591 3.99513 14.7186 4.57618 14.1744 5.15723C13.4079 5.97016 12.6348 6.7785 11.8721 7.59509C11.7779 7.69499 11.7374 7.8398 11.6715 7.96169C11.8146 7.99652 11.9615 8.06984 12.1018 8.05976C13.0049 7.99468 13.906 7.90945 14.8072 7.83338C15.3288 7.79031 15.8514 7.76006 16.3722 7.71057C16.4207 7.7012 16.4707 7.70205 16.5189 7.71306C16.5671 7.72408 16.6123 7.74501 16.6514 7.77444C16.6906 7.80388 16.7228 7.84114 16.7459 7.88371C16.7691 7.92629 16.7826 7.97319 16.7855 8.02126C16.8722 8.52717 16.9418 9.03765 16.9955 9.54814C17.0209 9.79284 16.9409 9.8405 16.6848 9.86524C15.7695 9.95689 14.8542 10.0485 13.939 10.1402C13.744 10.1594 13.5463 10.1484 13.3533 10.175C13.2102 10.2085 13.0706 10.2545 12.9361 10.3125Z" fill="currentColor"/>
</svg>
