<svg width="18" height="20" viewBox="0 0 18 20" fill="none" xmlns="http://www.w3.org/2000/svg">
<path d="M6.86573 16.1362C6.53732 16.5836 6.20088 17.0247 5.88175 17.479C5.48345 18.0465 4.96951 18.2419 4.30157 18.0628C3.95894 17.9711 3.80679 17.8347 3.80556 17.5123C3.8037 16.899 3.85627 16.3241 4.16736 15.7466C4.61204 14.9215 4.92127 14.0211 5.28678 13.1526C5.34183 13.0213 5.20453 12.7901 5.05857 12.7737C4.56874 12.7203 4.07459 12.6945 3.58847 12.6173C2.72138 12.4796 1.85306 12.3401 0.997101 12.1479C0.259889 11.982 -0.148917 11.221 0.0502288 10.4506C0.154131 10.0491 0.425019 9.78137 0.827022 9.65884C1.38179 9.48918 1.93222 9.58595 2.44679 9.77132C2.97867 9.96297 3.50931 10.0346 4.06222 10.0107C4.09933 10.0088 4.14695 9.93784 4.1655 9.88945C4.17911 9.85364 4.16983 9.78263 4.14386 9.76064C3.72516 9.40183 3.27182 9.07821 2.88652 8.6861C2.35711 8.14695 2.07447 7.49784 2.29897 6.71048C2.36453 6.48049 2.49874 6.32842 2.73561 6.26621C3.4184 6.08712 4.02882 6.17824 4.57926 6.67089C4.94848 7.00142 5.36656 7.27476 5.76238 7.5745C5.87494 7.65996 5.97142 7.64991 6.04997 7.53617C6.07966 7.49407 6.12419 7.44505 6.12233 7.40044C6.10811 7.0674 6.09388 6.73373 6.06048 6.40257C5.95906 5.40533 5.80691 4.41877 5.86443 3.40268C5.90525 2.6857 5.74507 1.95929 5.70239 1.2354C5.66776 0.642209 6.05244 0.18035 6.64555 0.045248C6.69936 0.0333088 6.75378 0.027025 6.80821 0.018856C7.40688 -0.0735159 7.8293 0.174694 7.90846 0.737095C7.99319 1.3416 8.04638 1.9549 8.05195 2.56505C8.0637 3.85135 8.18306 5.12256 8.45766 6.37806C8.46755 6.42205 8.51765 6.4629 8.55785 6.49306C8.66856 6.57538 8.76689 6.55967 8.84729 6.45598C9.25486 5.93066 9.66491 5.40659 10.0706 4.88001C10.5444 4.26419 11.0249 3.65278 11.4844 3.02628C11.8104 2.58265 12.2421 2.4111 12.7671 2.40607C13.2427 2.40167 13.5718 2.70015 13.6522 3.21228C13.7152 3.61319 13.6862 3.99273 13.4326 4.32515C12.9279 4.98683 12.4103 5.63972 11.9155 6.30894C11.422 6.97565 10.9086 7.62163 10.5914 8.41653C10.3891 8.923 10.0193 9.36036 9.72428 9.8285C9.65563 9.93721 9.75706 10.2137 9.87457 10.2545C9.97785 10.291 10.078 10.3488 10.1832 10.3607C10.5091 10.3978 10.8388 10.4519 11.1641 10.4368C12.4814 10.3739 13.7932 10.3545 15.1025 10.5775C15.476 10.641 15.8694 10.5769 16.2528 10.5863C16.6449 10.5958 16.9368 10.8911 17.0098 11.3347C17.0277 11.4441 17.0302 11.5565 17.0358 11.6678C17.0475 11.9028 16.977 12.1152 16.8026 12.2666C16.199 12.7926 15.5094 13.0967 14.6986 13.0665C14.3158 13.0521 13.9329 13.0263 13.5501 13.0288C13.4573 13.0288 13.3627 13.1181 13.2724 13.1721C13.1599 13.24 13.2217 13.4297 13.4128 13.5837C13.7146 13.8263 14.0201 14.0632 14.3226 14.3051C14.5384 14.4779 14.7524 14.6526 14.9639 14.831C15.3344 15.1427 15.4451 15.5644 15.4315 16.0294C15.4284 16.1368 15.4012 16.2531 15.3523 16.3479C15.1594 16.7256 14.2589 17.0511 13.8927 16.8726C13.6961 16.7771 13.5006 16.6697 13.3275 16.5365C12.6255 15.9986 11.9167 15.4682 11.242 14.8958C10.7237 14.4559 10.1337 14.1851 9.50905 13.9651C9.35753 13.9117 9.1658 14.0399 9.17817 14.1983C9.2561 15.198 9.29692 16.2028 9.668 17.1548C9.7886 17.4652 9.83808 17.8045 9.96301 18.1124C10.2358 18.7848 10.0168 19.3007 9.52513 19.7563C9.06066 20.1861 8.23625 20.0303 8.00061 19.4239C7.77982 18.8564 7.61407 18.2645 7.45203 17.6757C7.36359 17.3546 7.36174 17.009 7.26773 16.6904C7.20774 16.4874 7.05003 16.314 6.93561 16.1274C6.91706 16.0576 6.89851 15.9873 6.88057 15.9175C6.87624 15.9904 6.87191 16.0633 6.8682 16.1362H6.86573Z" fill="currentColor"/>
</svg>
