<svg width="297" height="307" viewBox="0 0 297 307" fill="none" xmlns="http://www.w3.org/2000/svg">
<path d="M181.085 193.99C181.169 201.891 181.305 208.992 181.327 216.098C181.344 232.002 181.502 247.922 181.18 263.806C180.824 269.238 180.02 274.632 178.775 279.933C177.366 287.436 166.887 296.721 159.799 297.14C154.39 297.44 151.638 294.903 151.779 289.4C152.143 277.17 152.621 264.935 153.059 252.72C153.233 247.778 153.442 242.837 153.57 237.9C153.519 236.888 153.386 235.882 153.172 234.892L151.929 234.673C150.463 238.562 148.946 242.343 147.74 246.257C144.457 256.786 141.599 267.411 138.112 277.856C135.186 286.582 130.587 294.659 124.572 301.636C120.735 306.101 114.912 307.552 109.786 304.606C105.915 302.452 102.426 299.677 99.4597 296.391C98.0031 294.708 97.7983 291.164 98.3028 288.702C99.2903 283.995 100.803 279.412 102.814 275.039C111.549 256.298 120.535 237.669 129.456 219.006C132.011 213.647 134.738 208.372 137.28 202.986C137.835 201.393 138.255 199.756 138.535 198.093C136.259 198.939 134.88 199.343 133.591 199.936C117.504 207.458 101.481 215.115 85.3113 222.462C78.6375 225.469 71.5723 227.507 64.0138 226.056C56.9274 224.695 52.1735 219.497 51.1127 211.696C50.391 206.255 54.1625 199.695 59.8409 196.994C79.6094 187.649 99.3779 178.304 119.146 168.959C120.441 168.25 121.689 167.456 122.881 166.585L122.604 165.546C120.343 165.374 118.102 165.006 115.906 164.446C105.972 160.905 96.0827 157.459 86.3242 153.556C69.5467 146.826 52.8848 139.712 36.1834 132.864C25.6341 128.511 15.1919 123.86 6.91973 115.762C4.30647 113.146 2.26486 110.017 0.923213 106.572C-1.24457 101.007 0.993289 96.6551 8.23781 94.087C15.4823 91.519 21.8849 93.2859 28.3598 96.2541C51.8587 107.032 75.3755 117.813 98.9099 128.597C105.524 131.615 112.188 134.494 118.837 137.445L119.717 136.337C118.251 134.774 116.771 133.216 115.298 131.672C107.7 123.602 99.598 115.934 92.6048 107.396C84.3744 97.4986 76.7919 87.0153 69.2691 76.5532C63.8544 69.048 58.8273 61.2443 53.928 53.3966C49.8273 46.8187 54.496 37.8579 61.7604 35.297C69.0248 32.736 72.1734 37.7543 76.0436 41.6079C85.5548 51.0806 94.9909 60.6273 104.352 70.2479C106.341 72.2621 108.05 74.5353 109.43 77.0062C114.195 85.7576 120.645 93.2179 127.252 100.555C129.563 103.136 131.676 105.893 133.993 108.454C135.118 109.697 136.587 110.579 138.215 110.989C138.008 110.131 137.827 109.261 137.566 108.429C133.778 96.152 129.339 84.0347 126.35 71.5611C122.769 56.9955 120.43 42.0893 121.758 26.8998C122.326 20.2729 123.511 13.8322 127.181 8.17661C133.385 -1.34526 141.963 -2.10571 149.751 5.84238C152.958 8.90881 155.752 12.3771 158.066 16.161C160.15 19.8135 161.492 23.8413 162.017 28.0148C163.662 42.8532 164.812 57.7279 166.083 72.6118C166.994 83.3822 167.799 94.1704 168.704 104.961C168.905 106.242 169.199 107.507 169.584 108.745L170.626 108.994C172.398 105.751 174.118 102.401 176.041 99.2352C182.034 89.2586 190.166 80.7279 199.852 74.2577C210.671 66.7053 222.858 63.5141 235.315 60.7884C242.416 59.2105 249.385 65.0751 249.642 72.3992C249.899 79.7232 246.296 84.2271 240.314 87.6147C231.693 92.5136 222.689 96.9511 214.735 102.77C204.274 110.417 194.662 119.194 184.726 127.532C181.804 129.983 184.813 130.966 186.149 131.801C191.417 135.257 196.768 138.608 202.224 141.762C212.252 147.564 220.426 155.593 229.078 163.133C237.338 170.331 246.392 176.659 255.339 183.038C268.115 192.137 281.064 200.973 294.02 209.822C294.943 210.331 295.633 211.175 295.948 212.179C296.263 213.184 296.178 214.271 295.711 215.217C292.352 225.585 281.518 228.877 271.901 222.304C262.508 215.889 253.204 209.382 243.853 202.914C227.618 191.613 211.348 180.366 195.043 169.173C194.221 168.623 192.943 168.749 191.866 168.567C192.085 169.649 192.447 170.696 192.942 171.682C197.36 178.093 201.779 184.505 206.373 190.8C212.561 199.241 219.054 207.488 225.132 216.014C230.358 223.329 235.223 230.896 240.204 238.392C241.966 241.035 241.259 243.56 239.587 245.997C234.155 253.902 222.764 255.004 216.938 247.397C210.82 239.417 205.728 230.672 200.282 222.193C194.837 213.714 189.265 204.933 183.709 196.325C182.916 195.46 182.037 194.678 181.085 193.99Z" fill="currentColor"/>
</svg>
