<svg width="20" height="20" viewBox="0 0 20 20" fill="none" xmlns="http://www.w3.org/2000/svg">
<path d="M16.4915 4.24887C15.4054 6.08232 13.8797 7.62315 12.5733 9.3103C14.5211 9.35545 16.4719 9.25714 18.4048 9.01596C18.5946 8.99253 18.8126 8.97595 18.9504 9.10798C19.0583 9.21142 19.0791 9.37259 19.0935 9.52062C19.1391 9.98755 19.184 10.4545 19.2296 10.9214L19.2308 10.9306C16.9668 11.2209 14.678 11.3192 12.3979 11.2255C11.9497 11.2072 11.475 11.1866 11.0828 11.4021C10.9945 11.4507 10.9074 11.517 10.8769 11.6124C10.8198 11.7913 10.9807 11.9599 11.1266 12.0799C13.3133 13.8808 15.5559 15.6154 17.8493 17.2808C17.9716 17.3694 18.1008 17.4665 18.1516 17.6083C18.1891 17.7134 18.1787 17.8289 18.1637 17.9392C18.1081 18.3546 18.0058 18.7625 17.8585 19.1554C17.8061 19.2948 17.7293 19.4497 17.5834 19.4869C17.4381 19.5234 17.2962 19.4251 17.1785 19.332L10.8388 14.314C10.8296 15.6548 10.8209 16.9962 10.8117 18.337C10.8094 18.6884 10.8048 19.0502 10.6704 19.376C10.536 19.7018 10.2383 19.9864 9.8836 19.9995C9.51444 20.0132 9.18682 19.7275 9.04031 19.3909C8.8938 19.0548 8.88976 18.6764 8.89437 18.3101C8.91226 16.7527 9.02877 15.1844 8.79286 13.6442C7.33873 15.2404 5.88402 16.8367 4.42988 18.433C4.37682 18.4913 4.31971 18.5524 4.24415 18.5764C4.14609 18.6073 4.04112 18.5701 3.94536 18.5336C3.58717 18.3958 3.22897 18.2581 2.87135 18.1198C2.77675 18.0832 2.67004 18.0329 2.64812 17.9352C2.62909 17.8506 2.68389 17.7689 2.73522 17.6991C4.15417 15.786 5.7016 13.9698 7.36699 12.2628C7.46562 12.1616 7.57175 12.0439 7.56599 11.9033C7.55445 11.6238 7.16684 11.5615 6.88535 11.585C4.66984 11.7707 2.45432 11.957 0.238798 12.1428C0.160929 12.1491 0.0674865 12.1485 0.0242259 12.0845C0.000576807 12.0485 0 12.0027 0 11.9599L0.012113 10.5396C0.0132666 10.4305 0.0184579 10.3105 0.0934429 10.231C0.166697 10.1533 0.283789 10.139 0.390499 10.1299L5.0165 9.71494C3.93037 8.71648 2.74099 7.83633 1.5545 6.95847C1.85501 6.54583 2.15495 6.13319 2.45547 5.72112C2.51315 5.64225 2.57487 5.55995 2.66543 5.5228C2.83732 5.4525 3.02363 5.57138 3.17014 5.68454L7.80998 9.24629C8.11222 9.47832 8.63135 9.6715 8.80266 9.33201C8.84881 9.24 8.84823 9.13255 8.84708 9.02968C8.80266 6.19206 8.75767 3.35386 8.71326 0.516242C8.71153 0.391649 8.71441 0.254483 8.7992 0.163039C8.87592 0.0807398 8.99705 0.060165 9.10895 0.0441623C9.635 -0.030136 10.2753 -0.0598553 10.585 0.367645C10.7598 0.608829 10.7684 0.927168 10.7707 1.22379L10.8192 7.35854C10.8215 7.67288 10.8324 8.01179 11.0263 8.26098L14.6584 3.48589C14.8245 3.26699 15.0028 3.05095 15.2393 2.9035C15.421 2.79034 15.4683 3.09839 15.5294 3.20355C15.575 3.28242 15.6176 3.37158 15.6753 3.44245" fill="currentColor"/>
</svg>
