<svg width="34" height="36" viewBox="0 0 34 36" fill="none" xmlns="http://www.w3.org/2000/svg">
<path d="M20.043 6.96338C20.043 7.63088 20.027 8.29838 20.043 8.96414C20.0592 9.2955 20.1102 9.62433 20.1952 9.94535C20.2324 10.0917 20.3581 10.3183 20.4607 10.327C20.5499 10.3238 20.6375 10.3025 20.7179 10.2644C20.7983 10.2263 20.8699 10.1723 20.9281 10.1057C21.445 9.4957 21.9371 8.8648 22.4346 8.23913C23.4294 6.98604 24.4137 5.72249 25.4174 4.47638C25.913 3.8629 26.5238 3.83153 27.1876 4.34392C27.8001 4.81623 27.8727 5.31293 27.3646 5.95603C25.867 7.88882 24.334 9.79023 22.8559 11.7404C22.2699 12.5125 21.7937 13.363 21.2627 14.1804C21.0886 14.4643 20.9001 14.7395 20.698 15.0048C20.1669 15.6496 20.1386 16.3572 20.4466 17.0805C20.5039 17.1641 20.5815 17.2323 20.6724 17.2789C20.7633 17.3255 20.8646 17.3489 20.967 17.3471C21.93 17.1728 22.886 16.9463 23.8419 16.7336C24.3411 16.6221 24.8385 16.5018 25.3377 16.3851C26.6318 16.0818 27.9276 15.7751 29.2322 15.4771C30.1439 15.2697 31.0502 14.9978 31.9743 14.9019C32.4611 14.8514 33.0364 15.0292 33.479 15.2505C33.6137 15.315 33.7279 15.4145 33.8094 15.5382C33.8909 15.6619 33.9366 15.8052 33.9415 15.9526C33.9465 16.1 33.9104 16.2459 33.8373 16.3746C33.7643 16.5034 33.6569 16.61 33.5268 16.6831C33.06 16.9781 32.5468 17.1948 32.0079 17.3244C30.3085 17.7044 28.5896 18.0007 26.8867 18.3701C25.5201 18.6612 24.1623 19.001 22.8028 19.3252C22.3177 19.4402 21.8291 19.5483 21.36 19.7086C21.1426 19.7748 20.9594 19.9208 20.8484 20.1164C20.8042 20.2315 21.006 20.4894 21.1565 20.6184C22.1498 21.4976 23.2505 22.2516 24.4331 22.8631C25.297 23.2971 26.0104 24.0186 26.8212 24.5659C27.6001 25.0887 28.425 25.554 29.2198 26.0612C29.8235 26.4446 30.4023 26.8699 31.0095 27.2481C31.4999 27.5565 32.0256 27.8127 32.5231 28.1108C32.8541 28.3112 33.1073 28.5935 32.9709 29.0101C32.8346 29.4266 32.5567 29.8815 32.0593 29.9094C31.5618 29.9372 30.9706 29.9285 30.5156 29.7351C29.8164 29.4266 29.1968 28.9421 28.5418 28.5343C28.0479 28.2258 27.5452 27.933 27.0619 27.6106C26.0671 26.9448 25.074 26.2791 24.1003 25.5854C23.1267 24.8918 22.1531 24.1319 21.1724 23.4226C20.5988 23.0113 20.3581 23.0949 20.197 23.7555C20.071 24.2447 19.9799 24.7421 19.9244 25.2438C19.7296 27.3643 19.5497 29.4853 19.3845 31.6069C19.3508 32.0513 19.4181 32.5044 19.4163 32.9523C19.4163 33.9231 18.8162 34.4511 17.8355 34.3553C17.6584 34.3485 17.4884 34.2854 17.3508 34.1754C17.2133 34.0654 17.1156 33.9145 17.0725 33.7453C16.7893 32.8913 16.8831 32.0339 16.9681 31.1677C17.1026 29.7542 17.2212 28.3391 17.3328 26.9239C17.4638 25.2822 17.5894 23.6404 17.6992 21.9952C17.7204 21.6554 17.8638 21.2266 17.4071 21.0419C16.9504 20.8571 16.7203 21.2632 16.5397 21.5403C16.0828 22.2444 15.6628 22.9709 15.2811 23.7171C14.2366 25.7719 13.1763 27.8197 12.208 29.9094C11.5707 31.2827 11.1016 32.731 10.5192 34.1305C10.3368 34.5237 10.0984 34.8893 9.81107 35.2162C9.64033 35.45 9.38476 35.6101 9.09735 35.6633C8.80995 35.7165 8.51277 35.6588 8.26744 35.5021C8.10173 35.3676 7.99209 35.1777 7.95941 34.9688C7.83727 34.3692 8.11696 33.8412 8.33116 33.3026C8.79142 32.1349 9.21627 30.9516 9.70662 29.7961C10.2129 28.5988 10.7688 27.4223 11.3158 26.2407C11.6497 25.5169 11.992 24.7971 12.3425 24.0814C12.6045 23.5585 12.9072 23.0357 13.1497 22.5006C13.1747 22.4178 13.18 22.3304 13.1653 22.2452C13.1506 22.1599 13.1162 22.0792 13.0647 22.0091C12.9957 21.929 12.7461 21.9394 12.6045 21.9865C11.1741 22.4553 9.73141 22.898 8.32762 23.433C6.41401 24.1633 4.54465 25.0016 2.62926 25.7248C2.05394 25.9427 1.3901 25.9758 0.768754 26.0211C0.216444 26.0612 -0.0119146 25.7074 0.000476944 25.1497C0.0199494 24.1772 0.782914 23.9297 1.47507 23.6439C3.33912 22.8736 5.19255 22.0928 7.09554 21.4026C8.82505 20.7717 10.5953 20.2541 12.3496 19.6895C12.9745 19.4873 13.6171 19.3269 14.226 19.0864C14.835 18.8459 14.8474 18.5793 14.3517 18.1941C11.8805 16.2805 9.40805 14.3698 6.93445 12.462C6.58041 12.1936 6.24937 11.9147 5.8971 11.6551C5.16423 11.113 5.05093 10.5606 5.54305 9.86866C5.8971 9.35627 6.68485 9.26042 7.3239 9.69438C7.96295 10.1283 8.53297 10.5658 9.12422 11.0137C10.6289 12.1692 12.1336 13.3369 13.6294 14.4993C14.38 15.078 15.1306 15.6601 15.8953 16.2178C16.4476 16.6203 16.8159 16.5262 17.1557 15.9459C17.8638 14.7381 18.0143 13.4484 17.7647 12.0925C17.736 11.9067 17.7206 11.7192 17.7187 11.5313C17.6355 8.91708 17.5664 6.30285 17.4655 3.67816C17.4319 2.80675 17.308 1.91966 17.2549 1.03954C17.2159 0.427805 17.3363 0.229124 17.8798 0.0461281C18.1122 -0.0238143 18.3618 -0.0139819 18.5879 0.0740138C19.3614 0.406892 19.8093 0.982022 19.8429 1.8482C19.912 3.55442 20.0005 5.26065 20.0819 6.96861L20.043 6.96338Z" fill="currentColor"/>
</svg>
