<svg width="19" height="20" viewBox="0 0 19 20" fill="none" xmlns="http://www.w3.org/2000/svg">
<path d="M7.83719 3.41582L7.85764 3.45369C8.01327 3.73885 8.02747 4.0791 8.11267 4.38837C8.23251 4.82215 8.35577 5.25478 8.48129 5.68683C8.55172 5.92897 8.61761 6.58996 8.84026 6.73914C9.06915 6.89234 9.42699 6.04085 9.51332 5.88766C10.2415 4.60067 10.9668 3.31139 11.6944 2.02383C12.0874 1.32841 12.6304 0.755778 13.1768 0.187164C13.2484 0.112573 13.345 0.0540471 13.4409 0.0150302C13.4989 -0.00849475 13.596 -0.00505208 13.6443 0.0299484C14.0118 0.297329 14.2458 0.638728 14.2003 1.12414C14.1492 1.66866 13.9817 2.18621 13.7687 2.67966C13.5693 3.14212 13.3131 3.57877 13.2103 4.08197C13.1893 4.18525 13.1331 4.28567 13.0746 4.37517C12.5577 5.16699 12.3044 6.077 11.9403 6.9371C11.8875 7.06103 12.0301 7.23661 12.1704 7.22112C12.9508 7.13505 13.7306 7.03865 14.5122 6.96292C14.9739 6.91816 15.4385 6.90611 15.902 6.87742C16.1508 6.86193 16.4075 6.87628 16.6472 6.81947C16.8903 6.76209 17.1749 6.64562 17.4288 6.68004C17.527 6.69324 17.6173 6.7357 17.7054 6.77931C17.8996 6.87513 18.1172 6.91759 18.2058 7.14136C18.2597 7.27735 18.2609 7.42825 18.2609 7.57514C18.2609 7.78744 18.2529 7.994 18.0661 8.12138C17.8809 8.24703 17.6548 8.29236 17.435 8.27515C16.2871 8.18621 15.1551 8.35662 14.0192 8.45704C13.4909 8.51614 12.9627 8.57409 12.435 8.63491C12.1175 8.67163 11.7995 8.70663 11.4831 8.75483C11.2224 8.79442 11.0185 8.92926 10.8998 9.17541C10.8532 9.2718 10.7919 9.36648 10.7703 9.46918C10.7498 9.56845 10.7356 9.70099 10.7839 9.7773C10.9327 10.0143 11.1054 10.226 11.3422 10.3746C11.7813 10.6494 12.1249 11.0585 12.56 11.3466C13.0104 11.6449 13.4904 11.9032 13.8942 12.2675C14.1748 12.5205 14.4122 12.8235 14.7166 13.0496C15.0006 13.2607 15.3329 13.4053 15.584 13.6612C15.8941 13.9768 16.1985 14.2947 16.5189 14.5999C16.595 14.6722 16.6858 14.7525 16.7148 14.8466C16.7989 15.1203 16.8489 15.4026 16.8091 15.6935C16.7835 15.8783 16.562 16.0849 16.3598 16.0912C16.2559 16.094 16.1383 16.098 16.0491 16.055C15.7015 15.8886 15.3539 15.7182 15.0148 15.5357C14.7229 15.3785 14.4247 15.3206 14.2049 15.0457C14.1214 14.9413 14.0561 14.822 13.9629 14.7256C13.7948 14.5511 13.5557 14.4708 13.3529 14.3394C13.2183 14.2522 13.0996 14.142 12.982 14.0324C12.7202 13.7892 12.4214 13.5602 12.1919 13.2883C12.0585 13.1305 11.9221 12.9738 11.7813 12.8223C11.5098 12.5309 11.2286 12.2503 10.9339 11.9835C10.7572 11.8234 10.2875 11.2318 10.0319 11.3517C9.94215 11.3936 9.88308 11.482 9.83934 11.5709C9.54342 12.1734 9.74847 13.0352 9.83934 13.6664C9.88649 13.9934 9.9785 14.3124 9.98986 14.6424C10.0256 15.6752 10.0864 16.6954 9.99611 17.7304C9.94669 18.2973 9.9075 18.9302 9.58148 19.4162C9.15776 20.0479 8.37224 20.1524 7.73212 19.8001C7.38337 19.6084 7.08348 19.3697 6.81312 19.0737C6.30704 18.5194 5.76745 18.0059 5.16369 17.5474C4.24071 16.8463 3.53243 15.8817 2.78155 15.0113C2.53845 14.6097 2.26071 14.2786 1.93809 13.9647C1.55811 13.5947 1.19119 13.0742 0.928215 12.6129C0.702725 12.2176 0.519833 11.7528 0.325582 11.3374C0.0381811 10.7235 -0.233316 10.0607 0.32331 9.31483C0.347733 9.30279 0.370453 9.28442 0.386924 9.26262C0.552776 9.04229 1.2247 8.89598 1.48143 8.80417C1.87164 8.66474 2.26923 8.54655 2.67193 8.45072C3.44837 8.26597 4.28047 8.27056 5.03702 8.01637C5.11881 7.98883 5.20515 7.95268 5.25002 7.87867C5.39258 7.63883 4.22594 6.8625 4.03567 6.71619C3.61081 6.39029 3.2598 5.97659 2.7895 5.70118C2.61797 5.60077 2.49983 5.38617 2.38964 5.20428C2.24765 4.97076 2.26525 4.72288 2.42031 4.4928C2.50438 4.36772 2.61854 4.27763 2.7736 4.29485C3.31489 4.35509 3.78859 4.51575 4.19811 4.93862C4.64171 5.39765 5.17902 5.76487 5.68282 6.16307C5.95375 6.37709 6.22923 6.84931 6.58763 6.92103C6.95511 6.99447 6.41212 5.92667 6.35475 5.76774C5.92649 4.58173 5.53174 3.38541 5.43745 2.11391C5.42666 1.97047 5.43632 1.82588 5.42382 1.683C5.40508 1.47128 5.49652 1.19644 5.65159 1.04037C5.89809 0.793074 6.07303 0.934797 6.32919 1.0639C6.66374 1.23316 6.89775 1.50399 7.06133 1.82989C7.32771 2.36178 7.55774 2.89655 7.83776 3.41639L7.83719 3.41582ZM8.55002 16.028C8.47902 16.2306 8.39212 16.4297 8.341 16.6374C8.27227 16.9174 8.25466 17.2118 8.17174 17.4866C8.07859 17.7941 7.97465 18.1103 7.61625 18.2331C7.50719 18.2704 7.50663 18.4018 7.60432 18.4574C7.83776 18.5894 8.07007 18.7346 8.33929 18.7667C8.52446 18.8223 8.72325 18.8 8.71587 18.629C8.71587 17.661 8.81129 17.1395 8.77835 16.3671C8.7721 16.2122 8.66475 16.1089 8.53752 16.0309M6.62 14.6705C6.42973 14.9149 6.35873 15.0744 6.13835 15.1634C5.78109 15.2322 5.4863 15.0796 5.26479 14.8369C5.13301 14.6923 5.21083 14.4961 5.24491 14.3205C5.36021 13.7186 5.52322 13.1333 5.74985 12.5624C5.88446 12.2233 5.9901 11.9439 6.50981 11.8429C6.83527 11.0293 6.62341 10.3212 6.34453 9.63099C6.28659 9.48812 6.15482 9.41525 6.00885 9.39574C5.90434 9.38197 5.79472 9.39287 5.68964 9.40779C4.94899 9.51164 4.20322 9.58967 3.47052 9.73541C2.91219 9.84615 2.36692 10.0303 1.8245 10.2099C1.4945 10.3189 1.3525 10.6913 1.49279 10.9989C2.00114 12.1132 2.59696 13.1758 3.33875 14.1501C3.62104 14.5207 3.91128 14.8868 4.21685 15.2385C4.38214 15.429 4.53492 15.6149 4.64909 15.8467C5.00522 16.5685 5.59422 17.1022 6.16107 17.6472C6.28659 17.7677 6.46608 17.8314 6.6217 17.9186C6.73644 17.9829 6.79948 18.0495 6.79948 17.6622C6.79948 17.0815 6.9909 17.0815 6.9909 16.8881C7.23854 15.9173 7.0795 15.5742 7.15618 14.5747C7.17208 14.3658 7.11756 14.1489 7.0778 13.9395C7.06985 13.8976 6.98522 13.8649 6.93012 13.8425C6.91479 13.8362 6.86253 13.8792 6.85344 13.9079C6.76654 14.1805 6.68532 14.4547 6.62 14.6711V14.6705Z" fill="currentColor"/>
</svg>
